<svg width="24" height="25" viewBox="0 0 24 25" fill="none" xmlns="http://www.w3.org/2000/svg">
<path d="M8 16.6084H5.43C3.14 16.6084 2 15.4684 2 13.1784V6.0384C2 3.7484 3.14 2.6084 5.43 2.6084H10C12.29 2.6084 13.43 3.7484 13.43 6.0384" stroke="#6B43B5" stroke-width="1.5" stroke-linecap="round" stroke-linejoin="round"/>
<path d="M18.5703 22.6084H14.0003C11.7103 22.6084 10.5703 21.4684 10.5703 19.1784V12.0384C10.5703 9.7484 11.7103 8.6084 14.0003 8.6084H18.5703C20.8603 8.6084 22.0003 9.7484 22.0003 12.0384V19.1784C22.0003 21.4684 20.8603 22.6084 18.5703 22.6084Z" stroke="#6B43B5" stroke-width="1.5" stroke-linecap="round" stroke-linejoin="round"/>
<path d="M14.8711 15.6084H18.1311" stroke="#6B43B5" stroke-width="1.5" stroke-linecap="round" stroke-linejoin="round"/>
<path d="M16.5 17.2385V13.9785" stroke="#6B43B5" stroke-width="1.5" stroke-linecap="round" stroke-linejoin="round"/>
</svg>
