<svg width="46" height="47" viewBox="0 0 46 47" fill="none" xmlns="http://www.w3.org/2000/svg">
<path d="M17.1307 42.6668H28.5513C38.0685 42.6668 41.8753 38.8335 41.8753 29.2502V17.7502C41.8753 8.16683 38.0685 4.3335 28.5513 4.3335H17.1307C7.61351 4.3335 3.80664 8.16683 3.80664 17.7502V29.2502C3.80664 38.8335 7.61351 42.6668 17.1307 42.6668Z" stroke="white" stroke-width="3" stroke-linecap="round" stroke-linejoin="round"/>
<path d="M34.2631 15.3543V28.2918C34.2631 26.1835 32.55 24.4585 30.4562 24.4585H15.2287C13.135 24.4585 11.4219 26.1835 11.4219 28.2918V15.3543C11.4219 13.246 13.135 11.521 15.2287 11.521H30.4562C32.55 11.521 34.2631 13.246 34.2631 15.3543Z" stroke="white" stroke-width="3" stroke-linecap="round" stroke-linejoin="round"/>
<path d="M36.1652 30.6875H34.2617" stroke="white" stroke-width="3" stroke-linecap="round" stroke-linejoin="round"/>
<path d="M11.421 30.6875H9.51758" stroke="white" stroke-width="3" stroke-linecap="round" stroke-linejoin="round"/>
<path d="M34.2611 27.3333V21.5833C34.2611 19.475 32.5481 17.75 30.4543 17.75H15.2268C13.133 17.75 11.4199 19.475 11.4199 21.5833V27.3333" stroke="white" stroke-width="3" stroke-linecap="round" stroke-linejoin="round"/>
<path d="M34.2611 28.2918V30.6877H27.5991C27.5991 33.3327 25.4673 35.4793 22.8405 35.4793C20.2138 35.4793 18.0819 33.3327 18.0819 30.6877H11.4199V28.2918C11.4199 26.1835 13.133 24.4585 15.2268 24.4585H30.4543C32.5481 24.4585 34.2611 26.1835 34.2611 28.2918Z" stroke="white" stroke-width="3" stroke-linecap="round" stroke-linejoin="round"/>
</svg>
