<svg width="18" height="18" viewBox="0 0 18 18" fill="none" xmlns="http://www.w3.org/2000/svg">
<path d="M11.0791 4.50781C11.0944 4.51412 11.1035 4.52294 11.1074 4.52832C11.1091 4.53068 11.1103 4.53381 11.1113 4.53711C11.1123 4.54032 11.1142 4.54747 11.1143 4.56055V13.4414C11.1142 13.4532 11.1131 13.4595 11.1123 13.4619C11.1114 13.4646 11.1102 13.4671 11.1084 13.4697C11.1041 13.4757 11.0938 13.4853 11.0771 13.4922C11.0611 13.4988 11.0484 13.499 11.042 13.498C11.0393 13.4976 11.036 13.4965 11.0332 13.4951L11.0146 13.4805L7.12988 9.5957C6.80078 9.26653 6.79966 8.72911 7.12793 8.39941L7.12891 8.40039L8.60645 6.93066L8.60742 6.92871L11.0146 4.52148C11.0246 4.51152 11.032 4.50748 11.0352 4.50586C11.0383 4.50422 11.0411 4.50347 11.0439 4.50293C11.0507 4.50175 11.0637 4.50152 11.0791 4.50781Z" fill="#6B43B5" stroke="#6B43B5" stroke-width="1.5"/>
</svg>
