<svg width="18" height="18" viewBox="0 0 18 18" fill="none" xmlns="http://www.w3.org/2000/svg">
<path d="M6.9209 4.50781C6.90565 4.51412 6.89648 4.52294 6.89258 4.52832C6.89091 4.53068 6.88972 4.53381 6.88867 4.53711C6.88767 4.54032 6.88579 4.54747 6.88574 4.56055V13.4414C6.88578 13.4532 6.88691 13.4595 6.8877 13.4619C6.88857 13.4646 6.88977 13.4671 6.8916 13.4697C6.89586 13.4757 6.90624 13.4853 6.92285 13.4922C6.93891 13.4988 6.95164 13.499 6.95801 13.498C6.96072 13.4976 6.96403 13.4965 6.9668 13.4951L6.98535 13.4805L10.8701 9.5957C11.1992 9.26653 11.2003 8.72911 10.8721 8.39941L10.8711 8.40039L9.39355 6.93066L9.39258 6.92871L6.98535 4.52148C6.97539 4.51152 6.96798 4.50748 6.96484 4.50586C6.96167 4.50422 6.95894 4.50347 6.95605 4.50293C6.94927 4.50175 6.93629 4.50152 6.9209 4.50781Z" fill="#6B43B5" stroke="#6B43B5" stroke-width="1.5"/>
</svg>
