<svg width="16" height="16" viewBox="0 0 16 16" fill="none" xmlns="http://www.w3.org/2000/svg">
<path d="M14.75 9.96917C14.9738 9.96917 15.1884 9.88027 15.3466 9.72204C15.5049 9.5638 15.5938 9.34919 15.5938 9.12542C15.5938 8.90164 15.5049 8.68703 15.3466 8.5288C15.1884 8.37056 14.9738 8.28167 14.75 8.28167H13.9063V7.15667H14.75C14.9738 7.15667 15.1884 7.06777 15.3466 6.90954C15.5049 6.75131 15.5938 6.53669 15.5938 6.31292C15.5938 6.08914 15.5049 5.87453 15.3466 5.7163C15.1884 5.55806 14.9738 5.46917 14.75 5.46917H13.845C13.6927 4.41181 13.2553 3.41591 12.5797 2.58842L13.6391 1.58049C13.8013 1.42624 13.8955 1.2139 13.9011 0.990188C13.9066 0.766473 13.8231 0.549707 13.6689 0.387575C13.5146 0.225442 13.3023 0.131225 13.0786 0.125649C12.8549 0.120074 12.6381 0.203596 12.476 0.357844L11.336 1.4424C10.3533 0.767112 9.18887 0.405951 7.99655 0.406668C6.80423 0.407386 5.64021 0.769948 4.65837 1.44642L3.51408 0.357847C3.43382 0.281383 3.33927 0.221485 3.23585 0.181576C3.13243 0.141666 3.02216 0.122528 2.91134 0.125255C2.80052 0.127982 2.69133 0.152521 2.58999 0.197468C2.48866 0.242415 2.39718 0.306891 2.32078 0.387209C2.24437 0.467528 2.18455 0.562115 2.14471 0.665566C2.10488 0.769016 2.08583 0.879302 2.08864 0.99012C2.09145 1.10094 2.11607 1.21012 2.16109 1.31141C2.20612 1.41271 2.27066 1.50415 2.35104 1.58049L3.41616 2.59374C2.74293 3.42019 2.307 4.4141 2.15498 5.46917H1.25C1.02622 5.46917 0.811613 5.55806 0.653379 5.7163C0.495145 5.87453 0.40625 6.08914 0.40625 6.31292C0.40625 6.53669 0.495145 6.75131 0.653379 6.90954C0.811613 7.06777 1.02622 7.15667 1.25 7.15667H2.09375V8.28167H1.25C1.02622 8.28167 0.811613 8.37056 0.653379 8.5288C0.495145 8.68703 0.40625 8.90164 0.40625 9.12542C0.40625 9.34919 0.495145 9.5638 0.653379 9.72204C0.811613 9.88027 1.02622 9.96917 1.25 9.96917H2.10089C2.11889 10.3486 2.17361 10.7253 2.26428 11.0942H1.25C1.02622 11.0942 0.811613 11.1831 0.653379 11.3413C0.495145 11.4995 0.40625 11.7141 0.40625 11.9379C0.40625 12.1617 0.495145 12.3763 0.653379 12.5345C0.811613 12.6928 1.02622 12.7817 1.25 12.7817H2.97151C3.49946 13.6411 4.23889 14.3509 5.11921 14.8433C5.99952 15.3356 6.99134 15.5942 8 15.5942C9.00866 15.5942 10.0005 15.3356 10.8808 14.8433C11.7611 14.3509 12.5005 13.6411 13.0285 12.7817H14.75C14.9738 12.7817 15.1884 12.6928 15.3466 12.5345C15.5049 12.3763 15.5938 12.1617 15.5938 11.9379C15.5938 11.7141 15.5049 11.4995 15.3466 11.3413C15.1884 11.1831 14.9738 11.0942 14.75 11.0942H13.7357C13.8264 10.7253 13.8811 10.3486 13.8991 9.96917H14.75ZM8 2.09417C8.97211 2.09543 9.91405 2.4318 10.6671 3.04659C11.4201 3.66137 11.9381 4.51697 12.1338 5.46917H3.86615C4.06189 4.51697 4.57992 3.66137 5.33294 3.04659C6.08595 2.4318 7.0279 2.09543 8 2.09417ZM8.84375 13.8218V9.12542C8.84375 8.90164 8.75486 8.68703 8.59662 8.5288C8.43839 8.37056 8.22378 8.28167 8 8.28167C7.77622 8.28167 7.56161 8.37056 7.40338 8.5288C7.24514 8.68703 7.15625 8.90164 7.15625 9.12542V13.8218C6.20405 13.626 5.34845 13.108 4.73367 12.355C4.11888 11.602 3.78251 10.66 3.78125 9.68792V7.15667H12.2188V9.68792C12.2175 10.66 11.8811 11.602 11.2663 12.355C10.6515 13.108 9.79595 13.626 8.84375 13.8218Z" fill="white"/>
</svg>
