<svg width="39" height="39" viewBox="0 0 39 39" fill="none" xmlns="http://www.w3.org/2000/svg">
<path d="M13 3.25V8.125" stroke="white" stroke-width="2" stroke-miterlimit="10" stroke-linecap="round" stroke-linejoin="round"/>
<path d="M26 3.25V8.125" stroke="white" stroke-width="2" stroke-miterlimit="10" stroke-linecap="round" stroke-linejoin="round"/>
<path d="M5.6875 14.7715H33.3125" stroke="white" stroke-width="2" stroke-miterlimit="10" stroke-linecap="round" stroke-linejoin="round"/>
<path d="M35.75 30.875C35.75 32.0938 35.4087 33.2475 34.8075 34.2225C33.6862 36.1075 31.6225 37.375 29.25 37.375C27.6088 37.375 26.1138 36.7737 24.9763 35.75C24.4725 35.3275 24.0338 34.8075 23.6925 34.2225C23.0913 33.2475 22.75 32.0938 22.75 30.875C22.75 27.2837 25.6587 24.375 29.25 24.375C31.2 24.375 32.9387 25.2362 34.125 26.585C35.1325 27.7387 35.75 29.2338 35.75 30.875Z" stroke="white" stroke-width="2" stroke-miterlimit="10" stroke-linecap="round" stroke-linejoin="round"/>
<path d="M26.7148 30.8757L28.3236 32.4845L31.7848 29.2832" stroke="white" stroke-width="2" stroke-linecap="round" stroke-linejoin="round"/>
<path d="M34.125 13.8125V26.585C32.9387 25.2362 31.2 24.375 29.25 24.375C25.6587 24.375 22.75 27.2837 22.75 30.875C22.75 32.0938 23.0913 33.2475 23.6925 34.2225C24.0338 34.8075 24.4725 35.3275 24.9763 35.75H13C7.3125 35.75 4.875 32.5 4.875 27.625V13.8125C4.875 8.9375 7.3125 5.6875 13 5.6875H26C31.6875 5.6875 34.125 8.9375 34.125 13.8125Z" stroke="white" stroke-width="2" stroke-miterlimit="10" stroke-linecap="round" stroke-linejoin="round"/>
<path d="M19.493 22.2617H19.5076" stroke="white" stroke-width="2" stroke-linecap="round" stroke-linejoin="round"/>
<path d="M13.4774 22.2617H13.492" stroke="white" stroke-width="2" stroke-linecap="round" stroke-linejoin="round"/>
<path d="M13.4774 27.1367H13.492" stroke="white" stroke-width="2" stroke-linecap="round" stroke-linejoin="round"/>
</svg>
