<svg width="18" height="18" viewBox="0 0 18 18" fill="none" xmlns="http://www.w3.org/2000/svg">
<path d="M9 16.501C13.1421 16.501 16.5 13.1431 16.5 9.00098C16.5 4.85884 13.1421 1.50098 9 1.50098C4.85786 1.50098 1.5 4.85884 1.5 9.00098C1.5 13.1431 4.85786 16.501 9 16.501Z" stroke="#6B43B5" stroke-width="1.2" stroke-miterlimit="10" stroke-linecap="round" stroke-linejoin="round"/>
<path d="M7.41797 4.37354V5.87354" stroke="#6B43B5" stroke-width="1.2" stroke-miterlimit="10" stroke-linecap="round" stroke-linejoin="round"/>
<path d="M10.582 4.37354V5.87354" stroke="#6B43B5" stroke-width="1.2" stroke-miterlimit="10" stroke-linecap="round" stroke-linejoin="round"/>
<path d="M5.64844 7.60596H12.3534" stroke="#6B43B5" stroke-width="1.2" stroke-miterlimit="10" stroke-linecap="round" stroke-linejoin="round"/>
<path d="M10.125 13.2537H7.875C6 13.2537 4.875 11.9037 4.875 10.2537V8.00366C4.875 6.35366 6 5.00366 7.875 5.00366H10.125C12 5.00366 13.125 6.35366 13.125 8.00366V10.2537C13.125 11.9037 12 13.2537 10.125 13.2537Z" stroke="#6B43B5" stroke-width="1.2" stroke-miterlimit="10" stroke-linecap="round" stroke-linejoin="round"/>
</svg>
