<svg width="21" height="21" viewBox="0 0 21 21" fill="none" xmlns="http://www.w3.org/2000/svg">
<path d="M10.5 2.1665V7.1665L12.1667 5.49984" stroke="#6B43B5" stroke-width="1.25" stroke-linecap="round" stroke-linejoin="round"/>
<path d="M10.4987 7.16667L8.83203 5.5" stroke="#6B43B5" stroke-width="1.25" stroke-linecap="round" stroke-linejoin="round"/>
<path d="M6.33333 10.5C3 10.5 3 11.9917 3 13.8333V14.6667C3 16.9667 3 18.8333 7.16667 18.8333H13.8333C17.1667 18.8333 18 16.9667 18 14.6667V13.8333C18 11.9917 18 10.5 14.6667 10.5C13.8333 10.5 13.6 10.675 13.1667 11L12.3167 11.9C11.3333 12.95 9.66667 12.95 8.675 11.9L7.83333 11C7.4 10.675 7.16667 10.5 6.33333 10.5Z" stroke="#6B43B5" stroke-width="1.25" stroke-miterlimit="10" stroke-linecap="round" stroke-linejoin="round"/>
<path d="M4.66797 10.5V7.1667C4.66797 5.4917 4.66797 4.10837 7.16797 3.8667" stroke="#6B43B5" stroke-width="1.25" stroke-miterlimit="10" stroke-linecap="round" stroke-linejoin="round"/>
<path d="M16.332 10.5V7.1667C16.332 5.4917 16.332 4.10837 13.832 3.8667" stroke="#6B43B5" stroke-width="1.25" stroke-miterlimit="10" stroke-linecap="round" stroke-linejoin="round"/>
</svg>
