<svg width="24" height="24" viewBox="0 0 24 24" fill="none" xmlns="http://www.w3.org/2000/svg">
<path d="M5.40039 2.10059H18.6004C19.7004 2.10059 20.6004 3.00059 20.6004 4.10059V6.30059C20.6004 7.10059 20.1004 8.10059 19.6004 8.60059L15.3004 12.4006C14.7004 12.9006 14.3004 13.9006 14.3004 14.7006V19.0006C14.3004 19.6006 13.9004 20.4006 13.4004 20.7006L12.0004 21.6006C10.7004 22.4006 8.90039 21.5006 8.90039 19.9006V14.6006C8.90039 13.9006 8.50039 13.0006 8.10039 12.5006L4.30039 8.50059C3.80039 8.00059 3.40039 7.10059 3.40039 6.50059V4.20059C3.40039 3.00059 4.30039 2.10059 5.40039 2.10059Z" stroke="#6B43B5" stroke-width="1.5" stroke-miterlimit="10" stroke-linecap="round" stroke-linejoin="round"/>
<path d="M10.93 2.10059L6 10.0006" stroke="#6B43B5" stroke-width="1.5" stroke-miterlimit="10" stroke-linecap="round" stroke-linejoin="round"/>
</svg>
