<svg width="39" height="39" viewBox="0 0 39 39" fill="none" xmlns="http://www.w3.org/2000/svg">
<path d="M14.5781 35.75H24.3281C32.4531 35.75 35.7031 32.5 35.7031 24.375V14.625C35.7031 6.5 32.4531 3.25 24.3281 3.25H14.5781C6.45312 3.25 3.20312 6.5 3.20312 14.625V24.375C3.20313 32.5 6.45312 35.75 14.5781 35.75Z" stroke="white" stroke-width="2" stroke-linecap="round" stroke-linejoin="round"/>
<path d="M3.20312 20.6377L12.9531 20.6052C14.1719 20.6052 15.5369 21.5314 15.9919 22.6689L17.8444 27.3489C18.2669 28.4052 18.9331 28.4052 19.3556 27.3489L23.0769 17.9077C23.4344 16.9977 24.1006 16.9652 24.5556 17.8264L26.2456 21.0277C26.7494 21.9864 28.0494 22.7664 29.1219 22.7664H35.7194" stroke="white" stroke-width="2" stroke-linecap="round" stroke-linejoin="round"/>
</svg>
