<svg width="21" height="20" viewBox="0 0 21 20" fill="none" xmlns="http://www.w3.org/2000/svg">
<path d="M8.83333 5.83431L8.40333 6.99598C7.84 8.51931 7.55833 9.28098 7.0025 9.83681C6.44667 10.3926 5.685 10.6743 4.16167 11.2376L3 11.6676L4.16167 12.0976C5.685 12.661 6.44667 12.9435 7.0025 13.4985C7.55833 14.0535 7.84 14.816 8.40333 16.3393L8.83333 17.501L9.26333 16.3393C9.82667 14.816 10.1092 14.0543 10.6642 13.4985C11.2192 12.9426 11.9817 12.661 13.505 12.0976L14.6667 11.6676L13.505 11.2376C11.9817 10.6743 11.22 10.3926 10.6642 9.83681C10.1083 9.28098 9.82667 8.51931 9.26333 6.99598L8.83333 5.83431ZM15.5 2.50098L15.3158 2.99848C15.0742 3.65181 14.9533 3.97848 14.7158 4.21598C14.4775 4.45431 14.1508 4.57514 13.4975 4.81598L13 5.00098L13.4983 5.18514C14.1508 5.42681 14.4775 5.54764 14.715 5.78514C14.9533 6.02348 15.0742 6.35014 15.315 7.00348L15.5 7.50098L15.6842 7.00348C15.9258 6.35014 16.0467 6.02348 16.2842 5.78598C16.5225 5.54764 16.8492 5.42681 17.5025 5.18598L18 5.00098L17.5017 4.81681C16.8492 4.57514 16.5225 4.45431 16.285 4.21681C16.0467 3.97848 15.9258 3.65181 15.685 2.99848L15.5 2.50098Z" fill="#6B43B5" stroke="#6B43B5" stroke-linecap="round" stroke-linejoin="round"/>
</svg>
