<svg width="12" height="13" viewBox="0 0 12 13" fill="none" xmlns="http://www.w3.org/2000/svg">
<path d="M6 1.80371C8.47886 1.80371 10.5 3.82485 10.5 6.30371C10.5 8.78257 8.47886 10.8037 6 10.8037C3.52114 10.8037 1.5 8.78257 1.5 6.30371C1.5 3.82485 3.52114 1.80371 6 1.80371ZM6 3.42871C5.51886 3.42871 5.125 3.82257 5.125 4.30371V6.80371C5.125 7.07296 5.24846 7.31473 5.44141 7.47559C5.39526 7.50595 5.35172 7.54009 5.31055 7.57715L5.29102 7.59473L5.27344 7.61426C5.21236 7.68212 5.15959 7.75669 5.11719 7.83789L5.07812 7.92188C5.03193 8.03291 5 8.16308 5 8.30371C5 8.44434 5.03193 8.57452 5.07812 8.68555V8.68457C5.13085 8.81671 5.20283 8.91471 5.27344 8.99316L5.29102 9.0127L5.31055 9.03027C5.40104 9.11171 5.50422 9.17811 5.61816 9.22559C5.7292 9.27178 5.85937 9.30371 6 9.30371C6.14063 9.30371 6.2708 9.27178 6.38184 9.22559C6.49578 9.17811 6.59896 9.11171 6.68945 9.03027L6.70898 9.0127L6.72656 8.99316C6.79711 8.91478 6.86819 8.81654 6.9209 8.68457L6.92188 8.68555C6.96807 8.57452 7 8.44434 7 8.30371C7 8.16308 6.96807 8.03291 6.92188 7.92188C6.8744 7.80794 6.808 7.70475 6.72656 7.61426L6.70898 7.59473L6.68945 7.57715L6.61914 7.51855C6.59923 7.5034 6.57854 7.48933 6.55762 7.47559C6.7509 7.31473 6.875 7.07323 6.875 6.80371V4.30371C6.875 3.82257 6.48114 3.42871 6 3.42871Z" fill="#B7B7B7" stroke="#B7B7B7"/>
</svg>
