<svg width="31" height="30" viewBox="0 0 31 30" fill="none" xmlns="http://www.w3.org/2000/svg">
<path d="M15.4883 2.68701H15.5C19.6181 2.68701 24.2401 5.02551 25.6602 10.1665L25.7881 10.6724C27.1014 16.4642 23.8658 21.4643 20.5332 24.8774L19.8662 25.5396L19.8643 25.5405C18.6486 26.7214 17.075 27.312 15.5 27.312C14.0241 27.3119 12.5479 26.7936 11.3564 25.7544L11.1221 25.5396C7.5749 22.1288 3.79965 16.8388 5.2002 10.6606C6.4486 5.16767 11.2485 2.68701 15.4883 2.68701ZM15.5 8.44971C13.049 8.4499 11.0625 10.4362 11.0625 12.8872C11.0626 15.3381 13.0491 17.3245 15.5 17.3247C17.9511 17.3247 19.9374 15.3383 19.9375 12.8872C19.9375 10.4361 17.9511 8.44971 15.5 8.44971Z" fill="#6B43B5" stroke="#6B43B5"/>
</svg>
