<svg width="22" height="22" viewBox="0 0 22 22" fill="none" xmlns="http://www.w3.org/2000/svg">
<path d="M15.584 19.25H6.41732C2.75065 19.25 1.83398 18.3333 1.83398 14.6667V7.33333C1.83398 3.66667 2.75065 2.75 6.41732 2.75H15.584C19.2507 2.75 20.1673 3.66667 20.1673 7.33333V14.6667C20.1673 18.3333 19.2507 19.25 15.584 19.25Z" stroke="#848696" stroke-width="1.5" stroke-linecap="round" stroke-linejoin="round"/>
<path d="M12.834 7.33398H17.4173" stroke="#848696" stroke-width="1.5" stroke-linecap="round" stroke-linejoin="round"/>
<path d="M13.75 11H17.4167" stroke="#848696" stroke-width="1.5" stroke-linecap="round" stroke-linejoin="round"/>
<path d="M15.584 14.666H17.4173" stroke="#848696" stroke-width="1.5" stroke-linecap="round" stroke-linejoin="round"/>
<path d="M7.79198 10.3496C8.70831 10.3496 9.45115 9.60675 9.45115 8.69042C9.45115 7.77408 8.70831 7.03125 7.79198 7.03125C6.87565 7.03125 6.13281 7.77408 6.13281 8.69042C6.13281 9.60675 6.87565 10.3496 7.79198 10.3496Z" stroke="#848696" stroke-width="1.5" stroke-linecap="round" stroke-linejoin="round"/>
<path d="M11.0007 14.9691C10.8723 13.6399 9.81815 12.5949 8.48898 12.4758C8.03065 12.4299 7.56315 12.4299 7.09565 12.4758C5.76648 12.6041 4.71232 13.6399 4.58398 14.9691" stroke="#848696" stroke-width="1.5" stroke-linecap="round" stroke-linejoin="round"/>
</svg>
