<svg width="20" height="21" viewBox="0 0 20 21" fill="none" xmlns="http://www.w3.org/2000/svg">
<path d="M7.63411 9.55841C7.55078 9.55008 7.45078 9.55008 7.35911 9.55841C5.37578 9.49175 3.80078 7.86675 3.80078 5.86675C3.80078 3.82508 5.45078 2.16675 7.50078 2.16675C9.54245 2.16675 11.2008 3.82508 11.2008 5.86675C11.1924 7.86675 9.61745 9.49175 7.63411 9.55841Z" stroke="#6B43B5" stroke-width="1.2" stroke-linecap="round" stroke-linejoin="round"/>
<path d="M13.6747 3.83325C15.2914 3.83325 16.5914 5.14159 16.5914 6.74992C16.5914 8.32492 15.3414 9.60825 13.7831 9.66659C13.7164 9.65825 13.6414 9.65825 13.5664 9.66659" stroke="#6B43B5" stroke-width="1.2" stroke-linecap="round" stroke-linejoin="round"/>
<path d="M3.46563 12.6333C1.44896 13.9833 1.44896 16.1833 3.46563 17.5249C5.75729 19.0583 9.51563 19.0583 11.8073 17.5249C13.824 16.1749 13.824 13.9749 11.8073 12.6333C9.52396 11.1083 5.76562 11.1083 3.46563 12.6333Z" stroke="#6B43B5" stroke-width="1.2" stroke-linecap="round" stroke-linejoin="round"/>
<path d="M15.2852 17.1667C15.8852 17.0417 16.4518 16.8001 16.9185 16.4417C18.2185 15.4667 18.2185 13.8584 16.9185 12.8834C16.4602 12.5334 15.9018 12.3001 15.3102 12.1667" stroke="#6B43B5" stroke-width="1.2" stroke-linecap="round" stroke-linejoin="round"/>
</svg>
