<svg width="39" height="39" viewBox="0 0 39 39" fill="none" xmlns="http://www.w3.org/2000/svg">
<path d="M35.75 9.75V13.6825C35.75 16.25 34.125 17.875 31.5575 17.875H26V6.51625C26 4.7125 27.4788 3.25 29.2825 3.25C31.0538 3.26625 32.6788 3.98125 33.8488 5.15125C35.0188 6.3375 35.75 7.9625 35.75 9.75Z" stroke="white" stroke-width="2" stroke-miterlimit="10" stroke-linecap="round" stroke-linejoin="round"/>
<path d="M3.25 11.375V34.125C3.25 35.4737 4.77746 36.2375 5.84996 35.425L8.62875 33.345C9.27875 32.8575 10.1888 32.9225 10.7738 33.5075L13.4712 36.2213C14.105 36.855 15.145 36.855 15.7788 36.2213L18.5088 33.4913C19.0775 32.9225 19.9875 32.8575 20.6213 33.345L23.4 35.425C24.4725 36.2212 26 35.4575 26 34.125V6.5C26 4.7125 27.4625 3.25 29.25 3.25H11.375H9.75C4.875 3.25 3.25 6.15875 3.25 9.75V11.375Z" stroke="white" stroke-width="2" stroke-miterlimit="10" stroke-linecap="round" stroke-linejoin="round"/>
<path d="M9.75 14.625H19.5" stroke="white" stroke-width="2" stroke-linecap="round" stroke-linejoin="round"/>
<path d="M10.9688 21.125H18.2812" stroke="white" stroke-width="2" stroke-linecap="round" stroke-linejoin="round"/>
</svg>
