<svg width="39" height="39" viewBox="0 0 39 39" fill="none" xmlns="http://www.w3.org/2000/svg">
<path d="M14.625 35.75H24.375C32.5 35.75 35.75 32.5 35.75 24.375V14.625C35.75 6.5 32.5 3.25 24.375 3.25H14.625C6.5 3.25 3.25 6.5 3.25 14.625V24.375C3.25 32.5 6.5 35.75 14.625 35.75Z" stroke="white" stroke-width="2" stroke-linecap="round" stroke-linejoin="round"/>
<path d="M13 30.875H26C29.25 30.875 30.875 29.25 30.875 26V13C30.875 9.75 29.25 8.125 26 8.125H13C9.75 8.125 8.125 9.75 8.125 13V26C8.125 29.25 9.75 30.875 13 30.875Z" stroke="white" stroke-width="2" stroke-linecap="round" stroke-linejoin="round"/>
<path d="M8.125 15.4375H12.155C14.3975 15.4375 16.2175 17.2575 16.2175 19.5C16.2175 21.7425 14.3975 23.5625 12.155 23.5625H8.125" stroke="white" stroke-width="2" stroke-linecap="round" stroke-linejoin="round"/>
<path d="M30.875 16.2344H26" stroke="white" stroke-width="2" stroke-linecap="round" stroke-linejoin="round"/>
<path d="M30.875 22.75H26" stroke="white" stroke-width="2" stroke-linecap="round" stroke-linejoin="round"/>
<path d="M11.7012 19.5H11.8637" stroke="white" stroke-width="2" stroke-miterlimit="10" stroke-linecap="round" stroke-linejoin="round"/>
</svg>
