<svg width="16" height="17" viewBox="0 0 16 17" fill="none" xmlns="http://www.w3.org/2000/svg">
<path d="M7.99967 12.2533C9.47243 12.2533 10.6663 11.0593 10.6663 9.58659C10.6663 8.11383 9.47243 6.91992 7.99967 6.91992C6.52692 6.91992 5.33301 8.11383 5.33301 9.58659C5.33301 11.0593 6.52692 12.2533 7.99967 12.2533Z" stroke="#301F56" stroke-miterlimit="10" stroke-linecap="round" stroke-linejoin="round"/>
<path d="M6.95996 9.65333L7.39329 10.0867C7.51996 10.2133 7.72663 10.2133 7.85329 10.0933L9.03996 9" stroke="#301F56" stroke-linecap="round" stroke-linejoin="round"/>
<path d="M5.33289 14.7858H10.6662C13.3462 14.7858 13.8262 13.7125 13.9662 12.4058L14.4662 7.07247C14.6462 5.44581 14.1796 4.11914 11.3329 4.11914H4.66623C1.81956 4.11914 1.35289 5.44581 1.53289 7.07247L2.03289 12.4058C2.17289 13.7125 2.65289 14.7858 5.33289 14.7858Z" stroke="#301F56" stroke-miterlimit="10" stroke-linecap="round" stroke-linejoin="round"/>
<path d="M5.33301 4.11979V3.58646C5.33301 2.40646 5.33301 1.45312 7.46634 1.45312H8.53301C10.6663 1.45312 10.6663 2.40646 10.6663 3.58646V4.11979" stroke="#301F56" stroke-miterlimit="10" stroke-linecap="round" stroke-linejoin="round"/>
<path d="M14.4329 7.45312C13.2795 8.29312 11.9995 8.87979 10.6729 9.21312" stroke="#301F56" stroke-miterlimit="10" stroke-linecap="round" stroke-linejoin="round"/>
<path d="M1.74707 7.63281C2.8604 8.39281 4.07374 8.93281 5.33374 9.23948" stroke="#301F56" stroke-miterlimit="10" stroke-linecap="round" stroke-linejoin="round"/>
</svg>
