<svg width="39" height="39" viewBox="0 0 39 39" fill="none" xmlns="http://www.w3.org/2000/svg">
<path d="M29.25 30.6468H28.015C26.715 30.6468 25.48 31.1506 24.57 32.0606L21.7912 34.8068C20.5237 36.0581 18.46 36.0581 17.1925 34.8068L14.4137 32.0606C13.5037 31.1506 12.2525 30.6468 10.9688 30.6468H9.75C7.0525 30.6468 4.875 28.4856 4.875 25.8206V8.09183C4.875 5.42683 7.0525 3.26562 9.75 3.26562H29.25C31.9475 3.26562 34.125 5.42683 34.125 8.09183V25.8206C34.125 28.4694 31.9475 30.6468 29.25 30.6468Z" stroke="white" stroke-width="3" stroke-miterlimit="10" stroke-linecap="round" stroke-linejoin="round"/>
<path d="M19.4992 16.2502C21.5903 16.2502 23.2854 14.555 23.2854 12.4639C23.2854 10.3728 21.5903 8.67773 19.4992 8.67773C17.4081 8.67773 15.7129 10.3728 15.7129 12.4639C15.7129 14.555 17.4081 16.2502 19.4992 16.2502Z" stroke="white" stroke-width="3" stroke-linecap="round" stroke-linejoin="round"/>
<path d="M26 25.4478C26 22.5228 23.0913 20.1504 19.5 20.1504C15.9087 20.1504 13 22.5228 13 25.4478" stroke="white" stroke-width="3" stroke-linecap="round" stroke-linejoin="round"/>
</svg>
